<mxfile host="65bd71144e">
    <diagram id="dBq91NN1N-A0Npe5ktuQ" name="ページ1">
        <mxGraphModel dx="1463" dy="805" grid="1" gridSize="10" guides="1" tooltips="1" connect="1" arrows="1" fold="1" page="1" pageScale="1" pageWidth="827" pageHeight="1169" math="0" shadow="0">
            <root>
                <mxCell id="0"/>
                <mxCell id="1" parent="0"/>
                <mxCell id="2" value="VPC" style="points=[[0,0],[0.25,0],[0.5,0],[0.75,0],[1,0],[1,0.25],[1,0.5],[1,0.75],[1,1],[0.75,1],[0.5,1],[0.25,1],[0,1],[0,0.75],[0,0.5],[0,0.25]];outlineConnect=0;gradientColor=none;html=1;whiteSpace=wrap;fontSize=12;fontStyle=0;container=1;pointerEvents=0;collapsible=0;recursiveResize=0;shape=mxgraph.aws4.group;grIcon=mxgraph.aws4.group_vpc;strokeColor=#248814;fillColor=none;verticalAlign=top;align=left;spacingLeft=30;fontColor=#AAB7B8;dashed=0;movable=0;resizable=0;rotatable=0;deletable=0;editable=0;connectable=0;" parent="1" vertex="1">
                    <mxGeometry x="40" y="80" width="750" height="630" as="geometry"/>
                </mxCell>
                <mxCell id="9" value="" style="shape=image;verticalLabelPosition=bottom;labelBackgroundColor=default;verticalAlign=top;aspect=fixed;imageAspect=0;image=data:image/svg+xml,PHN2ZyB4bWxucz0iaHR0cDovL3d3dy53My5vcmcvMjAwMC9zdmciIHZpZXdCb3g9IjAgMCA1MCA1MCI+PGRlZnM+PHN0eWxlPi5jbHMtMXtmaWxsOiM2OTNjYzU7fTwvc3R5bGU+PC9kZWZzPjx0aXRsZT5BbWF6b24tVlBDX0VuZHBvaW50c19saWdodC1iZzwvdGl0bGU+PGcgaWQ9IldvcmtpbmciPjxwYXRoIGQ9Ik0yNSw0MS45NGMtNSwwLTguNzYtMi42MS0xMC43Ny03LjU0YTIxLjMzLDIxLjMzLDAsMCwxLTEuNDUtNi41MmwyLS4xM2ExOS41MiwxOS41MiwwLDAsMCwxLjMsNS44OWMxLjcsNC4xOCw0LjcsNi4zLDguOTIsNi4zLDEwLjEsMCwxMC4yNS0xMS41MiwxMC4yNS0xMlYxNC4yN0wyNSwxMC4xNCwxNC43NSwxNC4yN3Y3LjkyaC0ydi04LjZhMSwxLDAsMCwxLC42My0uOTNMMjQuNjMsOC4xM2ExLDEsMCwwLDEsLjc0LDBsMTEuMjUsNC41M2ExLDEsMCwwLDEsLjYzLjkzVjI3LjkzQzM3LjI1LDI4LjA3LDM3LjExLDQxLjk0LDI1LDQxLjk0WiIgY2xhc3M9ImNscy0xIi8+PHBhdGggZD0iTTI1LDM3LjYyYy02Ljc2LDAtOC40Mi04Ljc3LTguNDgtOS4xNGExLjEsMS4xLDAsMCwxLDAtLjE4di0uNDloMnYuMzljLjE3LjgxLDEuNyw3LjQyLDYuNSw3LjQyUzMxLjMzLDI5LDMxLjUsMjguMlYxNy42NEwyNSwxNWwtNi41LDIuNjF2NC41NWgtMlYxN2ExLDEsMCwwLDEsLjYzLS45M2w3LjUtM2ExLDEsMCwwLDEsLjc0LDBsNy41LDNhMSwxLDAsMCwxLC42My45M1YyOC4zYTEuMSwxLjEsMCwwLDEsMCwuMThDMzMuNDIsMjguODUsMzEuNzYsMzcuNjIsMjUsMzcuNjJaIiBjbGFzcz0iY2xzLTEiLz48cGF0aCBkPSJNMjUsNDguNUEyMy41LDIzLjUsMCwxLDEsNDguNSwyNSwyMy41MiwyMy41MiwwLDAsMSwyNSw0OC41Wm0wLTQ1QTIxLjUsMjEuNSwwLDEsMCw0Ni41LDI1LDIxLjUyLDIxLjUyLDAsMCwwLDI1LDMuNVoiIGNsYXNzPSJjbHMtMSIvPjxwYXRoIGQ9Ik0yMi44OSwzMC4zOSwyMS40OCwyOWw0LTQtNC00LDEuNDEtMS40MSw0LjY5LDQuNjhhMSwxLDAsMCwxLDAsMS40MloiIGNsYXNzPSJjbHMtMSIvPjxyZWN0IGhlaWdodD0iMiIgd2lkdGg9IjIwLjYzIiB5PSIyNCIgeD0iNi4yNSIgY2xhc3M9ImNscy0xIi8+PC9nPjwvc3ZnPg==;" parent="2" vertex="1">
                    <mxGeometry x="727" y="295" width="50" height="50" as="geometry"/>
                </mxCell>
                <mxCell id="15" value="AWS Cloud" style="points=[[0,0],[0.25,0],[0.5,0],[0.75,0],[1,0],[1,0.25],[1,0.5],[1,0.75],[1,1],[0.75,1],[0.5,1],[0.25,1],[0,1],[0,0.75],[0,0.5],[0,0.25]];outlineConnect=0;gradientColor=none;html=1;whiteSpace=wrap;fontSize=12;fontStyle=0;container=1;pointerEvents=0;collapsible=0;recursiveResize=0;shape=mxgraph.aws4.group;grIcon=mxgraph.aws4.group_aws_cloud_alt;strokeColor=#232F3E;fillColor=none;verticalAlign=top;align=left;spacingLeft=30;fontColor=#232F3E;dashed=0;movable=0;resizable=0;rotatable=0;deletable=0;editable=0;connectable=0;" parent="1" vertex="1">
                    <mxGeometry width="910" height="730" as="geometry"/>
                </mxCell>
                <mxCell id="19" value="Availability Zone" style="fillColor=none;strokeColor=#147EBA;dashed=1;verticalAlign=top;fontStyle=0;fontColor=#147EBA;movable=0;resizable=0;rotatable=0;deletable=0;editable=0;connectable=0;" parent="15" vertex="1">
                    <mxGeometry x="80" y="140" width="300" height="542" as="geometry"/>
                </mxCell>
                <mxCell id="4" value="" style="sketch=0;outlineConnect=0;fontColor=#232F3E;gradientColor=none;fillColor=#4D27AA;strokeColor=none;dashed=0;verticalLabelPosition=bottom;verticalAlign=top;align=center;html=1;fontSize=12;fontStyle=0;aspect=fixed;pointerEvents=1;shape=mxgraph.aws4.internet_gateway;movable=0;resizable=0;rotatable=0;deletable=0;editable=0;connectable=0;" parent="15" vertex="1">
                    <mxGeometry x="361" y="40" width="78" height="78" as="geometry"/>
                </mxCell>
                <mxCell id="20" value="Availability Zone" style="fillColor=none;strokeColor=#147EBA;dashed=1;verticalAlign=top;fontStyle=0;fontColor=#147EBA;movable=0;resizable=0;rotatable=0;deletable=0;editable=0;connectable=0;" parent="15" vertex="1">
                    <mxGeometry x="420" y="140" width="300" height="542" as="geometry"/>
                </mxCell>
                <mxCell id="18" value="" style="edgeStyle=orthogonalEdgeStyle;html=1;endArrow=block;elbow=vertical;startArrow=none;endFill=1;strokeColor=#545B64;rounded=0;movable=0;resizable=0;rotatable=0;deletable=0;editable=0;connectable=0;" parent="15" source="4" target="3" edge="1">
                    <mxGeometry width="100" relative="1" as="geometry">
                        <mxPoint x="390" y="230" as="sourcePoint"/>
                        <mxPoint x="490" y="230" as="targetPoint"/>
                        <Array as="points">
                            <mxPoint x="400" y="170"/>
                            <mxPoint x="400" y="170"/>
                        </Array>
                    </mxGeometry>
                </mxCell>
                <mxCell id="5" value="Public subnet" style="points=[[0,0],[0.25,0],[0.5,0],[0.75,0],[1,0],[1,0.25],[1,0.5],[1,0.75],[1,1],[0.75,1],[0.5,1],[0.25,1],[0,1],[0,0.75],[0,0.5],[0,0.25]];outlineConnect=0;gradientColor=none;html=1;whiteSpace=wrap;fontSize=12;fontStyle=0;container=1;pointerEvents=0;collapsible=0;recursiveResize=0;shape=mxgraph.aws4.group;grIcon=mxgraph.aws4.group_security_group;grStroke=0;strokeColor=#248814;fillColor=#E9F3E6;verticalAlign=top;align=left;spacingLeft=30;fontColor=#248814;dashed=0;movable=0;resizable=0;rotatable=0;deletable=0;editable=0;connectable=0;" parent="15" vertex="1">
                    <mxGeometry x="439" y="180" width="261" height="140" as="geometry"/>
                </mxCell>
                <mxCell id="49" value="" style="sketch=0;outlineConnect=0;fontColor=#232F3E;gradientColor=none;fillColor=#4D27AA;strokeColor=none;dashed=0;verticalLabelPosition=bottom;verticalAlign=top;align=center;html=1;fontSize=12;fontStyle=0;aspect=fixed;pointerEvents=1;shape=mxgraph.aws4.nat_gateway;" vertex="1" parent="5">
                    <mxGeometry x="91.5" y="31" width="78" height="78" as="geometry"/>
                </mxCell>
                <mxCell id="6" value="Public subnet" style="points=[[0,0],[0.25,0],[0.5,0],[0.75,0],[1,0],[1,0.25],[1,0.5],[1,0.75],[1,1],[0.75,1],[0.5,1],[0.25,1],[0,1],[0,0.75],[0,0.5],[0,0.25]];outlineConnect=0;gradientColor=none;html=1;whiteSpace=wrap;fontSize=12;fontStyle=0;container=1;pointerEvents=0;collapsible=0;recursiveResize=0;shape=mxgraph.aws4.group;grIcon=mxgraph.aws4.group_security_group;grStroke=0;strokeColor=#248814;fillColor=#E9F3E6;verticalAlign=top;align=left;spacingLeft=30;fontColor=#248814;dashed=0;movable=0;resizable=0;rotatable=0;deletable=0;editable=0;connectable=0;" parent="15" vertex="1">
                    <mxGeometry x="100" y="180" width="260" height="140" as="geometry"/>
                </mxCell>
                <mxCell id="48" value="" style="sketch=0;outlineConnect=0;fontColor=#232F3E;gradientColor=none;fillColor=#4D27AA;strokeColor=none;dashed=0;verticalLabelPosition=bottom;verticalAlign=top;align=center;html=1;fontSize=12;fontStyle=0;aspect=fixed;pointerEvents=1;shape=mxgraph.aws4.nat_gateway;" vertex="1" parent="6">
                    <mxGeometry x="89" y="31" width="78" height="78" as="geometry"/>
                </mxCell>
                <mxCell id="3" value="" style="outlineConnect=0;dashed=0;verticalLabelPosition=bottom;verticalAlign=top;align=center;html=1;shape=mxgraph.aws3.application_load_balancer;fillColor=#F58534;gradientColor=none;movable=0;resizable=0;rotatable=0;deletable=0;editable=0;connectable=0;" parent="15" vertex="1">
                    <mxGeometry x="355.5" y="204" width="89" height="92" as="geometry"/>
                </mxCell>
                <mxCell id="14" value="Private subnet" style="points=[[0,0],[0.25,0],[0.5,0],[0.75,0],[1,0],[1,0.25],[1,0.5],[1,0.75],[1,1],[0.75,1],[0.5,1],[0.25,1],[0,1],[0,0.75],[0,0.5],[0,0.25]];outlineConnect=0;gradientColor=none;html=1;whiteSpace=wrap;fontSize=12;fontStyle=0;container=1;pointerEvents=0;collapsible=0;recursiveResize=0;shape=mxgraph.aws4.group;grIcon=mxgraph.aws4.group_security_group;grStroke=0;strokeColor=#147EBA;fillColor=#E6F2F8;verticalAlign=top;align=left;spacingLeft=30;fontColor=#147EBA;dashed=0;movable=0;resizable=0;rotatable=0;deletable=0;editable=0;connectable=0;" parent="15" vertex="1">
                    <mxGeometry x="100" y="335" width="260" height="335" as="geometry"/>
                </mxCell>
                <mxCell id="12" value="" style="sketch=0;outlineConnect=0;fontColor=#232F3E;gradientColor=none;fillColor=#D45B07;strokeColor=none;dashed=0;verticalLabelPosition=bottom;verticalAlign=top;align=center;html=1;fontSize=12;fontStyle=0;aspect=fixed;pointerEvents=1;shape=mxgraph.aws4.ecs_task;" parent="14" vertex="1">
                    <mxGeometry x="60.5" y="175" width="37" height="48" as="geometry"/>
                </mxCell>
                <mxCell id="25" value="&lt;font color=&quot;#000000&quot;&gt;ECS on Fargate&lt;/font&gt;" style="text;html=1;strokeColor=none;fillColor=none;align=center;verticalAlign=middle;whiteSpace=wrap;rounded=0;dashed=1;" parent="14" vertex="1">
                    <mxGeometry x="84" y="60" width="90" height="20" as="geometry"/>
                </mxCell>
                <mxCell id="10" value="" style="sketch=0;points=[[0,0,0],[0.25,0,0],[0.5,0,0],[0.75,0,0],[1,0,0],[0,1,0],[0.25,1,0],[0.5,1,0],[0.75,1,0],[1,1,0],[0,0.25,0],[0,0.5,0],[0,0.75,0],[1,0.25,0],[1,0.5,0],[1,0.75,0]];outlineConnect=0;fontColor=#232F3E;gradientColor=#F78E04;gradientDirection=north;fillColor=#D05C17;strokeColor=#ffffff;dashed=0;verticalLabelPosition=bottom;verticalAlign=top;align=center;html=1;fontSize=12;fontStyle=0;aspect=fixed;shape=mxgraph.aws4.resourceIcon;resIcon=mxgraph.aws4.fargate;movable=1;resizable=1;rotatable=1;deletable=1;editable=1;connectable=1;" parent="15" vertex="1">
                    <mxGeometry x="164" y="420" width="50" height="50" as="geometry"/>
                </mxCell>
                <mxCell id="7" value="Private subnet" style="points=[[0,0],[0.25,0],[0.5,0],[0.75,0],[1,0],[1,0.25],[1,0.5],[1,0.75],[1,1],[0.75,1],[0.5,1],[0.25,1],[0,1],[0,0.75],[0,0.5],[0,0.25]];outlineConnect=0;gradientColor=none;html=1;whiteSpace=wrap;fontSize=12;fontStyle=0;container=1;pointerEvents=0;collapsible=0;recursiveResize=0;shape=mxgraph.aws4.group;grIcon=mxgraph.aws4.group_security_group;grStroke=0;strokeColor=#147EBA;fillColor=#E6F2F8;verticalAlign=top;align=left;spacingLeft=30;fontColor=#147EBA;dashed=0;movable=0;resizable=0;rotatable=0;deletable=0;editable=0;connectable=0;" parent="15" vertex="1">
                    <mxGeometry x="439" y="335" width="261" height="335" as="geometry"/>
                </mxCell>
                <mxCell id="13" value="" style="sketch=0;outlineConnect=0;fontColor=#232F3E;gradientColor=none;fillColor=#D45B07;strokeColor=none;dashed=0;verticalLabelPosition=bottom;verticalAlign=top;align=center;html=1;fontSize=12;fontStyle=0;aspect=fixed;pointerEvents=1;shape=mxgraph.aws4.container_1;" parent="15" vertex="1">
                    <mxGeometry x="204" y="490" width="48" height="31" as="geometry"/>
                </mxCell>
                <mxCell id="24" value="" style="sketch=0;outlineConnect=0;fontColor=#232F3E;gradientColor=none;fillColor=#D45B07;strokeColor=none;dashed=0;verticalLabelPosition=bottom;verticalAlign=top;align=center;html=1;fontSize=12;fontStyle=0;aspect=fixed;pointerEvents=1;shape=mxgraph.aws4.container_1;" parent="15" vertex="1">
                    <mxGeometry x="204" y="550" width="48" height="31" as="geometry"/>
                </mxCell>
                <mxCell id="27" value="&lt;font color=&quot;#000000&quot;&gt;Reactコンテナ&lt;/font&gt;" style="text;html=1;strokeColor=none;fillColor=none;align=center;verticalAlign=middle;whiteSpace=wrap;rounded=0;dashed=1;" parent="15" vertex="1">
                    <mxGeometry x="254" y="495.5" width="82" height="20" as="geometry"/>
                </mxCell>
                <mxCell id="26" value="&lt;font color=&quot;#000000&quot;&gt;Goコンテナ&lt;/font&gt;" style="text;html=1;strokeColor=none;fillColor=none;align=center;verticalAlign=middle;whiteSpace=wrap;rounded=0;dashed=1;" parent="15" vertex="1">
                    <mxGeometry x="254" y="555.5" width="68" height="20" as="geometry"/>
                </mxCell>
                <mxCell id="30" value="" style="sketch=0;outlineConnect=0;fontColor=#232F3E;gradientColor=none;fillColor=#D45B07;strokeColor=none;dashed=0;verticalLabelPosition=bottom;verticalAlign=top;align=center;html=1;fontSize=12;fontStyle=0;aspect=fixed;pointerEvents=1;shape=mxgraph.aws4.ecs_task;" parent="15" vertex="1">
                    <mxGeometry x="500" y="510" width="37" height="48" as="geometry"/>
                </mxCell>
                <mxCell id="31" value="&lt;font color=&quot;#000000&quot;&gt;ECS on Fargate&lt;/font&gt;" style="text;html=1;strokeColor=none;fillColor=none;align=center;verticalAlign=middle;whiteSpace=wrap;rounded=0;dashed=1;" parent="15" vertex="1">
                    <mxGeometry x="523.5" y="395" width="90" height="20" as="geometry"/>
                </mxCell>
                <mxCell id="32" value="" style="sketch=0;points=[[0,0,0],[0.25,0,0],[0.5,0,0],[0.75,0,0],[1,0,0],[0,1,0],[0.25,1,0],[0.5,1,0],[0.75,1,0],[1,1,0],[0,0.25,0],[0,0.5,0],[0,0.75,0],[1,0.25,0],[1,0.5,0],[1,0.75,0]];outlineConnect=0;fontColor=#232F3E;gradientColor=#F78E04;gradientDirection=north;fillColor=#D05C17;strokeColor=#ffffff;dashed=0;verticalLabelPosition=bottom;verticalAlign=top;align=center;html=1;fontSize=12;fontStyle=0;aspect=fixed;shape=mxgraph.aws4.resourceIcon;resIcon=mxgraph.aws4.fargate;movable=1;resizable=1;rotatable=1;deletable=1;editable=1;connectable=1;" parent="15" vertex="1">
                    <mxGeometry x="503.5" y="420" width="50" height="50" as="geometry"/>
                </mxCell>
                <mxCell id="33" value="" style="sketch=0;outlineConnect=0;fontColor=#232F3E;gradientColor=none;fillColor=#D45B07;strokeColor=none;dashed=0;verticalLabelPosition=bottom;verticalAlign=top;align=center;html=1;fontSize=12;fontStyle=0;aspect=fixed;pointerEvents=1;shape=mxgraph.aws4.container_1;" parent="15" vertex="1">
                    <mxGeometry x="543.5" y="490" width="48" height="31" as="geometry"/>
                </mxCell>
                <mxCell id="34" value="" style="sketch=0;outlineConnect=0;fontColor=#232F3E;gradientColor=none;fillColor=#D45B07;strokeColor=none;dashed=0;verticalLabelPosition=bottom;verticalAlign=top;align=center;html=1;fontSize=12;fontStyle=0;aspect=fixed;pointerEvents=1;shape=mxgraph.aws4.container_1;" parent="15" vertex="1">
                    <mxGeometry x="543.5" y="550" width="48" height="31" as="geometry"/>
                </mxCell>
                <mxCell id="35" value="&lt;font color=&quot;#000000&quot;&gt;Reactコンテナ&lt;/font&gt;" style="text;html=1;strokeColor=none;fillColor=none;align=center;verticalAlign=middle;whiteSpace=wrap;rounded=0;dashed=1;" parent="15" vertex="1">
                    <mxGeometry x="593.5" y="495.5" width="82" height="20" as="geometry"/>
                </mxCell>
                <mxCell id="36" value="&lt;font color=&quot;#000000&quot;&gt;Goコンテナ&lt;/font&gt;" style="text;html=1;strokeColor=none;fillColor=none;align=center;verticalAlign=middle;whiteSpace=wrap;rounded=0;dashed=1;" parent="15" vertex="1">
                    <mxGeometry x="593.5" y="555.5" width="68" height="20" as="geometry"/>
                </mxCell>
                <mxCell id="37" value="" style="edgeStyle=orthogonalEdgeStyle;html=1;endArrow=block;elbow=vertical;startArrow=none;endFill=1;strokeColor=#545B64;rounded=0;fontColor=#000000;" parent="15" target="34" edge="1">
                    <mxGeometry width="100" relative="1" as="geometry">
                        <mxPoint x="567.5" y="520" as="sourcePoint"/>
                        <mxPoint x="753.5" y="480" as="targetPoint"/>
                    </mxGeometry>
                </mxCell>
                <mxCell id="29" value="" style="sketch=0;points=[[0,0,0],[0.25,0,0],[0.5,0,0],[0.75,0,0],[1,0,0],[0,1,0],[0.25,1,0],[0.5,1,0],[0.75,1,0],[1,1,0],[0,0.25,0],[0,0.5,0],[0,0.75,0],[1,0.25,0],[1,0.5,0],[1,0.75,0]];outlineConnect=0;fontColor=#232F3E;gradientColor=#F78E04;gradientDirection=north;fillColor=#D05C17;strokeColor=#ffffff;dashed=0;verticalLabelPosition=bottom;verticalAlign=top;align=center;html=1;fontSize=12;fontStyle=0;aspect=fixed;shape=mxgraph.aws4.resourceIcon;resIcon=mxgraph.aws4.ecs;movable=1;resizable=1;rotatable=1;deletable=1;editable=1;connectable=1;" parent="15" vertex="1">
                    <mxGeometry x="463.5" y="380" width="50" height="50" as="geometry"/>
                </mxCell>
                <mxCell id="11" value="" style="sketch=0;points=[[0,0,0],[0.25,0,0],[0.5,0,0],[0.75,0,0],[1,0,0],[0,1,0],[0.25,1,0],[0.5,1,0],[0.75,1,0],[1,1,0],[0,0.25,0],[0,0.5,0],[0,0.75,0],[1,0.25,0],[1,0.5,0],[1,0.75,0]];outlineConnect=0;fontColor=#232F3E;gradientColor=#F78E04;gradientDirection=north;fillColor=#D05C17;strokeColor=#ffffff;dashed=0;verticalLabelPosition=bottom;verticalAlign=top;align=center;html=1;fontSize=12;fontStyle=0;aspect=fixed;shape=mxgraph.aws4.resourceIcon;resIcon=mxgraph.aws4.ecs;movable=1;resizable=1;rotatable=1;deletable=1;editable=1;connectable=1;" parent="15" vertex="1">
                    <mxGeometry x="123" y="380" width="50" height="50" as="geometry"/>
                </mxCell>
                <mxCell id="8" value="" style="sketch=0;points=[[0,0,0],[0.25,0,0],[0.5,0,0],[0.75,0,0],[1,0,0],[0,1,0],[0.25,1,0],[0.5,1,0],[0.75,1,0],[1,1,0],[0,0.25,0],[0,0.5,0],[0,0.75,0],[1,0.25,0],[1,0.5,0],[1,0.75,0]];outlineConnect=0;fontColor=#232F3E;gradientColor=#F78E04;gradientDirection=north;fillColor=#D05C17;strokeColor=#ffffff;dashed=0;verticalLabelPosition=bottom;verticalAlign=top;align=center;html=1;fontSize=12;fontStyle=0;aspect=fixed;shape=mxgraph.aws4.resourceIcon;resIcon=mxgraph.aws4.ecr;" parent="1" vertex="1">
                    <mxGeometry x="830" y="361" width="78" height="78" as="geometry"/>
                </mxCell>
                <mxCell id="39" value="" style="edgeStyle=orthogonalEdgeStyle;html=1;endArrow=none;elbow=vertical;startArrow=block;startFill=1;strokeColor=#545B64;rounded=0;fontColor=#000000;" parent="1" source="33" edge="1">
                    <mxGeometry width="100" relative="1" as="geometry">
                        <mxPoint x="238.03703703703695" y="500.0903756936232" as="sourcePoint"/>
                        <mxPoint x="400" y="300" as="targetPoint"/>
                        <Array as="points">
                            <mxPoint x="568" y="440"/>
                            <mxPoint x="490" y="440"/>
                            <mxPoint x="490" y="370"/>
                            <mxPoint x="400" y="370"/>
                        </Array>
                    </mxGeometry>
                </mxCell>
                <mxCell id="28" value="" style="edgeStyle=orthogonalEdgeStyle;html=1;endArrow=block;elbow=vertical;startArrow=none;endFill=1;strokeColor=#545B64;rounded=0;fontColor=#000000;" parent="1" target="24" edge="1">
                    <mxGeometry width="100" relative="1" as="geometry">
                        <mxPoint x="228" y="520" as="sourcePoint"/>
                        <mxPoint x="414" y="480" as="targetPoint"/>
                    </mxGeometry>
                </mxCell>
                <mxCell id="38" value="" style="edgeStyle=orthogonalEdgeStyle;html=1;endArrow=none;elbow=vertical;startArrow=block;startFill=1;strokeColor=#545B64;rounded=0;fontColor=#000000;" parent="1" source="13" edge="1">
                    <mxGeometry width="100" relative="1" as="geometry">
                        <mxPoint x="390" y="340" as="sourcePoint"/>
                        <mxPoint x="400" y="300" as="targetPoint"/>
                        <Array as="points">
                            <mxPoint x="228" y="430"/>
                            <mxPoint x="320" y="430"/>
                            <mxPoint x="320" y="370"/>
                            <mxPoint x="400" y="370"/>
                        </Array>
                    </mxGeometry>
                </mxCell>
                <mxCell id="46" value="" style="edgeStyle=orthogonalEdgeStyle;html=1;endArrow=block;elbow=vertical;startArrow=none;endFill=1;strokeColor=#545B64;rounded=0;strokeWidth=1;fontColor=#000000;endSize=6;fillColor=default;entryX=0;entryY=0.5;entryDx=0;entryDy=0;entryPerimeter=0;" parent="1" target="8" edge="1">
                    <mxGeometry width="100" relative="1" as="geometry">
                        <mxPoint x="700" y="510" as="sourcePoint"/>
                        <mxPoint x="940" y="420" as="targetPoint"/>
                        <Array as="points">
                            <mxPoint x="760" y="510"/>
                            <mxPoint x="760" y="400"/>
                        </Array>
                    </mxGeometry>
                </mxCell>
                <mxCell id="47" value="" style="edgeStyle=orthogonalEdgeStyle;html=1;endArrow=block;elbow=vertical;startArrow=none;endFill=1;strokeColor=#545B64;rounded=0;strokeWidth=1;fontColor=#000000;endSize=6;fillColor=default;" parent="1" edge="1">
                    <mxGeometry width="100" relative="1" as="geometry">
                        <mxPoint x="360" y="640" as="sourcePoint"/>
                        <mxPoint x="830" y="400" as="targetPoint"/>
                        <Array as="points">
                            <mxPoint x="760" y="640"/>
                            <mxPoint x="760" y="400"/>
                        </Array>
                    </mxGeometry>
                </mxCell>
            </root>
        </mxGraphModel>
    </diagram>
</mxfile>